<?xml version="1.0" encoding="UTF-8" ?>
<svg version="1.1" width="80" height="80" xmlns="http://www.w3.org/2000/svg">
<rect x="20" y="20" width="10" height="10" fill="#6ABE30" />
<rect x="30" y="20" width="10" height="10" fill="#6ABE30" />
<rect x="40" y="20" width="10" height="10" fill="#6ABE30" />
<rect x="50" y="20" width="10" height="10" fill="#6ABE30" />
<rect x="10" y="30" width="10" height="10" fill="#6ABE30" />
<rect x="20" y="30" width="10" height="10" fill="#6ABE30" />
<rect x="30" y="30" width="10" height="10" fill="#6ABE30" />
<rect x="40" y="30" width="10" height="10" fill="#6ABE30" />
<rect x="50" y="30" width="10" height="10" fill="#6ABE30" />
<rect x="60" y="30" width="10" height="10" fill="#6ABE30" />
<rect x="10" y="40" width="10" height="10" fill="#6ABE30" />
<rect x="20" y="40" width="10" height="10" fill="#6ABE30" />
<rect x="30" y="40" width="10" height="10" fill="#6ABE30" />
<rect x="40" y="40" width="10" height="10" fill="#6ABE30" />
<rect x="50" y="40" width="10" height="10" fill="#6ABE30" />
<rect x="60" y="40" width="10" height="10" fill="#6ABE30" />
<rect x="20" y="50" width="10" height="10" fill="#6ABE30" />
<rect x="30" y="50" width="10" height="10" fill="#6ABE30" />
<rect x="40" y="50" width="10" height="10" fill="#6ABE30" />
<rect x="50" y="50" width="10" height="10" fill="#6ABE30" />
</svg>